<svg width="577" height="552" viewBox="0 0 577 552" fill="none" xmlns="http://www.w3.org/2000/svg">
<path d="M577 366.623C577 317.761 568.415 270.512 551.555 225.624L575.134 213.02L465.951 138.64L467.631 270.575L490.027 258.592C501.91 293.112 508.006 329.309 508.006 366.623C508.006 448.95 478.331 526.31 425.202 586.659C406.414 513.272 346.752 450.378 282.984 392.886C276.763 387.298 273.217 379.289 273.217 370.907C273.217 362.525 276.763 354.578 282.984 348.928C360.065 279.453 431.423 202.093 431.423 107.845V16.7014C431.423 7.51251 423.958 0 414.688 0H370.331C361.123 0 353.595 7.45042 353.595 16.7014V107.907C353.471 123.863 340.22 136.715 323.92 136.715H192.03C182.822 136.715 175.295 144.166 175.295 153.417V162.295C175.295 171.484 182.76 178.996 192.03 178.996H272.097C283.98 178.996 294.369 185.702 299.222 196.505C304.074 207.184 302.27 219.353 294.494 228.107C275.394 249.775 251.878 272.685 218.346 302.363C207.085 312.359 190.101 312.359 178.841 302.363C108.665 240.276 43.7157 173.781 43.5912 107.969V71.8966C43.5912 55.5677 56.9047 42.2811 73.2665 42.2811H232.406C241.613 42.2811 249.141 34.8307 249.141 25.5798V16.7014C249.141 7.51251 241.675 0 232.406 0H-17.6257C-26.8332 0 -34.3609 7.45042 -34.3609 16.7014V67.3021C-125.626 142.986 -180 255.922 -180 377.116C-180 425.978 -171.415 473.226 -154.555 518.115L-178.134 530.718L-68.9509 605.098L-70.6307 473.164L-93.0271 485.147C-104.91 450.626 -111.006 414.43 -111.006 377.116C-111.006 294.788 -81.3312 217.366 -28.1396 157.018L-28.3263 154.72C-9.72476 228.355 50.1235 291.374 114.078 349.052C120.299 354.64 123.845 362.649 123.845 371.031C123.845 379.413 120.299 387.36 114.078 393.01C36.9967 462.485 -34.3609 539.845 -34.3609 634.093V725.299C-34.3609 734.487 -26.8954 742 -17.6257 742H26.7317C35.9391 742 43.4668 734.55 43.4668 725.299V634.093C43.5912 618.075 56.8425 605.285 73.1421 605.285H235.392C244.599 605.285 252.127 597.834 252.127 588.583V579.705C252.127 570.516 244.662 563.004 235.392 563.004H124.965C113.145 563.004 102.755 556.298 97.8404 545.495C92.9879 534.816 94.792 522.647 102.569 513.893C121.73 492.162 145.246 469.315 178.716 439.637C189.977 429.641 206.961 429.641 218.221 439.637C288.397 501.724 353.347 568.219 353.471 634.031V670.103C353.471 686.432 340.158 699.719 323.796 699.719H164.656C155.449 699.719 147.921 707.169 147.921 716.42V725.299C147.921 734.487 155.387 742 164.656 742H414.501C423.709 742 431.236 734.55 431.236 725.299V676.56C522.502 600.815 576.938 487.879 576.938 366.685L577 366.623Z" fill="white"/>
</svg>
