<svg width="396" height="458" viewBox="0 0 396 458" fill="none" xmlns="http://www.w3.org/2000/svg">
<path d="M508.873 247.183C508.873 214.324 503.102 182.551 491.769 152.364L507.619 143.889L434.224 93.87L435.353 182.593L450.408 174.535C458.396 197.749 462.494 222.09 462.494 247.183C462.494 302.546 442.546 354.569 406.831 395.151C394.201 345.801 354.095 303.506 311.229 264.844C307.047 261.086 304.663 255.7 304.663 250.064C304.663 244.427 307.047 239.083 311.229 235.284C363.045 188.563 411.013 136.54 411.013 73.1611V11.8694C411.013 5.69016 405.995 0.638184 399.763 0.638184H369.945C363.756 0.638184 358.696 5.6484 358.696 11.8694V73.2029C358.612 83.9331 349.704 92.5757 338.747 92.5757H250.087C243.898 92.5757 238.838 97.5859 238.838 103.807V109.777C238.838 115.957 243.856 121.009 250.087 121.009H303.911C311.898 121.009 318.882 125.518 322.144 132.783C325.406 139.964 324.194 148.147 318.966 154.034C306.127 168.606 290.319 184.012 267.777 203.97C260.208 210.692 248.791 210.692 241.221 203.97C194.048 162.218 150.387 117.502 150.303 73.2446V48.9868C150.303 38.0061 159.253 29.0712 170.252 29.0712H277.229C283.418 29.0712 288.479 24.061 288.479 17.8399V11.8694C288.479 5.69016 283.46 0.638184 277.229 0.638184H109.152C102.962 0.638184 97.9021 5.6484 97.9021 11.8694V45.8972C36.5512 96.7927 0 172.739 0 254.239C0 287.098 5.77125 318.871 17.1046 349.057L1.25462 357.533L74.6498 407.552L73.5207 318.829L58.4652 326.887C50.4775 303.673 46.3791 279.332 46.3791 254.239C46.3791 198.876 66.3275 146.811 102.084 106.229L101.959 104.684C114.463 154.201 154.695 196.58 197.686 235.367C201.868 239.125 204.252 244.511 204.252 250.147C204.252 255.784 201.868 261.128 197.686 264.927C145.87 311.648 97.9021 363.67 97.9021 427.05V488.383C97.9021 494.562 102.921 499.614 109.152 499.614H138.97C145.159 499.614 150.22 494.604 150.22 488.383V427.05C150.303 416.278 159.211 407.677 170.168 407.677H279.236C285.426 407.677 290.486 402.667 290.486 396.446V390.475C290.486 384.296 285.468 379.244 279.236 379.244H205.005C197.059 379.244 190.075 374.735 186.771 367.47C183.509 360.289 184.722 352.105 189.949 346.218C202.83 331.605 218.638 316.24 241.138 296.283C248.707 289.561 260.124 289.561 267.694 296.283C314.868 338.035 358.528 382.751 358.612 427.008V451.266C358.612 462.246 349.662 471.181 338.663 471.181H231.686C225.497 471.181 220.437 476.192 220.437 482.413V488.383C220.437 494.562 225.455 499.614 231.686 499.614H399.638C405.827 499.614 410.888 494.604 410.888 488.383V455.608C472.239 404.671 508.832 328.724 508.832 247.225L508.873 247.183Z" fill="white"/>
</svg>
