<svg width="20" height="20" viewBox="0 0 20 20" fill="none" xmlns="http://www.w3.org/2000/svg">
<path d="M18.9271 6.65569L18.9269 6.6558L10.7388 14.823C10.3353 15.2255 9.66492 15.2257 9.26206 14.823C9.26203 14.8229 9.26199 14.8229 9.26195 14.8229M18.9271 6.65569L9.26195 14.8229M18.9271 6.65569C19.3343 6.24847 19.3345 5.58793 18.9271 5.18143C18.5198 4.77414 17.8584 4.77411 17.4511 5.18134C17.451 5.18137 17.451 5.1814 17.451 5.18143L10 12.6117M18.9271 6.65569L10 12.6117M9.26195 14.8229L1.07312 6.65489C0.665587 6.24839 0.665748 5.58777 1.073 5.18052L1.07312 5.1804C1.48131 4.77324 2.14168 4.77324 2.54988 5.1804L10 12.6117M9.26195 14.8229L10 12.6117" fill="white" stroke="white" stroke-width="0.25"/>
</svg>
