<svg width="25" height="25" viewBox="0 0 25 25" fill="none" xmlns="http://www.w3.org/2000/svg">
<path d="M18.0726 0H6.92685C5.99828 0 5.23828 0.759286 5.23828 1.68857V23.3107C5.23828 24.24 5.99828 25 6.92685 25H18.0726C19.0011 25 19.7611 24.2414 19.7611 23.3114V1.68857C19.7611 0.759286 19.0011 0 18.0726 0ZM10.7169 1.21714H14.2826C14.3954 1.21714 14.4869 1.30857 14.4869 1.42214C14.4869 1.535 14.3954 1.62643 14.2826 1.62643H10.7169C10.604 1.62643 10.5126 1.535 10.5126 1.42214C10.5126 1.30857 10.604 1.21714 10.7169 1.21714ZM12.4997 24.1557C12.0333 24.1557 11.6554 23.7779 11.6554 23.3107C11.6554 22.8436 12.0333 22.4664 12.4997 22.4664C12.9661 22.4664 13.344 22.8436 13.344 23.3107C13.344 23.7779 12.9661 24.1557 12.4997 24.1557ZM18.5861 21.875H6.41328V2.67786H18.5861V21.875Z" fill="#0C8082"/>
</svg>
