<svg width="40" height="20" viewBox="0 0 40 20" fill="none" xmlns="http://www.w3.org/2000/svg">
<path d="M0 0V20H40V0H0ZM11.1961 6.86225H9.07974V14.6995H7.1846V6.86225H5.07646V5.29762H11.1879L11.1961 6.86225ZM14.0224 14.6995H12.1273V5.30045H14.0224V14.6995ZM18.9732 9.45862H17.0617V10.5414H18.9732V14.6995H17.0617V10.5414H14.7215V9.45862H17.0617V5.30045H18.9732V9.45862ZM21.6821 16.6865H20.6308V10.5414H21.6739L21.6821 16.6865ZM21.6821 9.45862H20.6308V3.31349H21.6739L21.6821 9.45862ZM28.3069 14.6995H23.3561V10.5414H25.254V9.45862H27.6051V10.5414H25.254V13.254H28.3015L28.3069 14.6995ZM28.3069 6.7432H25.254V9.45862H23.3561V5.29762H28.2987L28.3069 6.7432ZM34.9317 14.6995H30.1966V5.30045H32.0808V13.1378H34.9126L34.9317 14.6995Z" fill="white"/>
</svg>
